<?xml version="1.0" encoding="UTF-8" standalone="no"?>
<svg
   xmlns:dc="http://purl.org/dc/elements/1.1/"
   xmlns:cc="http://creativecommons.org/ns#"
   xmlns:rdf="http://www.w3.org/1999/02/22-rdf-syntax-ns#"
   xmlns:svg="http://www.w3.org/2000/svg"
   xmlns="http://www.w3.org/2000/svg"
   xmlns:sodipodi="http://sodipodi.sourceforge.net/DTD/sodipodi-0.dtd"
   xmlns:inkscape="http://www.inkscape.org/namespaces/inkscape"
   version="1.1"
   id="Layer_1"
   x="0px"
   y="0px"
   viewBox="0 0 162.51968 279.68486"
   xml:space="preserve"
   sodipodi:docname="enemy.svg"
   width="43mm"
   height="74mm"
   inkscape:version="1.0.1 (c497b03c, 2020-09-10)"><metadata
   id="metadata8141"><rdf:RDF><cc:Work
       rdf:about=""><dc:format>image/svg+xml</dc:format><dc:type
         rdf:resource="http://purl.org/dc/dcmitype/StillImage" /><dc:title></dc:title></cc:Work></rdf:RDF></metadata><defs
   id="defs8139" /><sodipodi:namedview
   pagecolor="#ffffff"
   bordercolor="#666666"
   borderopacity="1"
   objecttolerance="10"
   gridtolerance="10"
   guidetolerance="10"
   inkscape:pageopacity="0"
   inkscape:pageshadow="2"
   inkscape:window-width="1680"
   inkscape:window-height="925"
   id="namedview8137"
   showgrid="false"
   units="mm"
   width="81mm"
   inkscape:zoom="0.65860215"
   inkscape:cx="671.24694"
   inkscape:cy="104.00816"
   inkscape:window-x="0"
   inkscape:window-y="23"
   inkscape:window-maximized="1"
   inkscape:current-layer="g8134" />
     <style
   type="text/css"
   id="style8034">
	.st0{fill:none;}
	.st1{opacity:0.5;fill:#929497;}
	.st2{fill:#F0D0B4;}
	.st3{fill:#497775;}
	.st4{fill:#CF9E76;}
	.st5{fill:#404041;}
	.st6{fill:#5A4A42;}
	.st7{fill:#A16733;}
	.st8{fill:#637E77;}
	.st9{fill:#A87C4F;}
	.st10{fill:#A6C57C;}
	.st11{fill:#B96E2B;}
	.st12{fill:#9A5C20;}
	.st13{fill:#375D4C;}
	.st14{fill:#F5E0CD;}
	.st15{fill:#C1272D;}
	.st16{fill:#AB2328;}
	.st17{fill:#AD2328;}
	.st18{fill:#BF8229;}
	.st19{fill:#E6E7E8;}
	.st20{fill:#A8BA3A;}
	.st21{fill:#7B912C;}
	.st22{fill:#FFCF01;}
	.st23{fill:#D34F1D;}
	.st24{fill:#AD4013;}
	.st25{fill:#C3922E;}
	.st26{fill:#A37B24;}
	.st27{fill:#8F3510;}
	.st28{fill:#F79433;}
	.st29{fill:#F4E09C;}
	.st30{fill:#FBCC34;}
	.st31{fill:#D0D2D3;}
	.st32{fill:#58595B;}
	.st33{fill:#8A5D3B;}
	.st34{fill:#929497;}
	.st35{fill:#754C28;}
	.st36{fill:#603813;}
	.st37{fill:#3B2314;}
	.st38{fill:#CDA349;}
	.st39{fill:#ECCF88;}
	.st40{fill:#F3E5D0;}
	.st41{fill:#F0DAAC;}
	.st42{fill:#E2C675;}
	.st43{fill:#808184;}
	.st44{fill:#CA974D;}
	.st45{fill:#EAC17D;}
	.st46{fill:#EE4036;}
	.st47{fill:#716558;}
	.st48{fill:#F05A28;}
	.st49{fill:#EE7069;}
	.st50{fill:#EC1C24;}
	.st51{fill:#C1B49A;}
	.st52{fill:#B88725;}
	.st53{fill:#D9CAAD;}
	.st54{fill:#BBBDBF;}
	.st55{fill:#9A8479;}
	.st56{fill:#93A650;}
	.st57{fill:#6E8227;}
	.st58{fill:#91AB33;}
	.st59{fill:#A64D2C;}
	.st60{fill:#4A3019;}
	.st61{opacity:0.57;fill:#808184;}
	.st62{fill:#C3996B;}
	.st63{fill:#617322;}
	.st64{fill:#AD6433;}
	.st65{fill:#EEA11E;}
	.st66{fill:#BCCD30;}
	.st67{fill:#F26122;}
	.st68{fill:#CC521D;}
	.st69{fill:#E1E43C;}
	.st70{fill:#8CA632;}
	.st71{fill:#F29254;}
	.st72{fill:#EEB75A;}
	.st73{fill:#B88D45;}
	.st74{fill:#A34217;}
	.st75{fill:#FBC926;}
	.st76{fill:#9FA0A3;}
	.st77{fill:#F1F1F2;}
	.st78{fill:#8BC53F;}
	.st79{fill:#A1805A;}
	.st80{fill:#DDBF9A;}
	.st81{fill:#72583C;}
	.st82{fill:#EE928C;}
	.st83{fill:#6D6E70;}
	.st84{fill:#996334;}
	.st85{fill:#97B336;}
	.st86{fill:#FFE89B;}
	.st87{fill:#CF8C1A;}
	.st88{fill:#D1AA2B;}
	.st89{fill:#E0B62E;}
	.st90{fill:#00A69C;}
	.st91{fill:#DEA32D;}
	.st92{fill:#25A9E0;}
	.st93{fill:#1B75BB;}
	.st94{fill:#916B44;}
	.st95{fill:#DBAC78;}
	.st96{fill:#F6921E;}
	.st97{fill:#CF982A;}
	.st98{fill:#85552A;}
	.st99{fill:#8A582C;}
	.st100{fill:#CAB68B;}
	.st101{fill:#D0AC2D;}
	.st102{fill:#CED7E4;}
	.st103{fill:#74CCE5;}
	.st104{fill:#00A9D3;}
	.st105{fill:#B9E5FB;}
	.st106{fill:#E6C69D;}
	.st107{fill:#87562B;}
	.st108{fill:#569483;}
	.st109{fill:#BD8648;}
	.st110{fill:#FFD694;}
	.st111{fill:#C2A370;}
	.st112{fill:#B0ACB0;}
	.st113{opacity:0.8;fill:#8A5D3B;}
	.st114{fill:#E9E9EA;}
	.st115{fill:#989498;}
	.st116{fill:#D3D1D3;}
	.st117{opacity:0.8;fill:#929497;}
	.st118{fill:#D4D2D3;}
	.st119{fill:#B3B6BA;}
	.st120{fill:#B1ADB1;}
	.st121{fill:#D6DE23;}
</style>
<g
   id="g8134"
   transform="translate(-44.032653,-124.50612)">
	<polygon
   class="st1"
   points="162,405 162,387 153,387 153,396 63,396 63,387 54,387 54,405 "
   id="polygon8036" />
	<polygon
   class="st31"
   points="135,198 144,198 144,189 153,189 153,171 135,171 135,180 126,180 126,171 108,171 108,153 126,153 126,171 135,171 135,153 153,153 153,144 99,144 99,198 108,198 108,189 117,189 117,198 126,198 126,189 135,189 "
   id="polygon8038" />
	<rect
   x="135"
   y="153"
   class="st32"
   width="18"
   height="18"
   id="rect8040" />
	<rect
   x="108"
   y="153"
   class="st32"
   width="18"
   height="18"
   id="rect8042" />
	<rect
   x="108"
   y="189"
   class="st32"
   width="9"
   height="9"
   id="rect8044" />
	<rect
   x="126"
   y="189"
   class="st32"
   width="9"
   height="9"
   id="rect8046" />
	<rect
   x="144"
   y="189"
   class="st32"
   width="9"
   height="9"
   id="rect8048" />
	<polygon
   class="st33"
   points="99,135 153,135 144,126 81,126 81,135 90,135 "
   id="polygon8050" />
	<rect
   x="81"
   y="135"
   class="st33"
   width="9"
   height="63"
   id="rect8052" />
	<polygon
   class="st34"
   points="99,144 99,135 90,135 90,198 99,198 "
   id="polygon8054" />
	<rect
   x="99"
   y="135"
   class="st34"
   width="54"
   height="9"
   id="rect8056" />
	<polygon
   class="st33"
   points="153,387 153,297 90,297 90,324 81,324 72,324 72,387 "
   id="polygon8058" />
	<polygon
   class="st33"
   points="126,243 135,243 135,261 126,261 126,279 117,279 117,288 153,288 153,252 153,243 153,207 90,207 90,198 81,198 72,198 72,243 99,243 108,243 117,243 "
   id="polygon8060" />
	<polygon
   class="st33"
   points="72,279 72,288 81,288 90,288 99,288 99,279 "
   id="polygon8062" />
	<rect
   x="72"
   y="135"
   class="st9"
   width="9"
   height="63"
   id="rect8064" />
	<polygon
   class="st35"
   points="72,243 72,198 63,198 63,207 63,243 "
   id="polygon8066" />
	<rect
   x="63"
   y="279"
   class="st35"
   width="9"
   height="9"
   id="rect8068" />
	<rect
   x="63"
   y="324"
   class="st35"
   width="9"
   height="63"
   id="rect8070" />
	<polygon
   class="st36"
   points="99,288 90,288 90,297 153,297 153,288 117,288 "
   id="polygon8072" />
	<polygon
   class="st33"
   points="54,243 63,243 63,207 45,207 45,270 54,270 "
   id="polygon8074" />
	<rect
   x="54"
   y="270"
   class="st33"
   width="9"
   height="9"
   id="rect8076" />
	<rect
   x="72"
   y="252"
   class="st33"
   width="27"
   height="27"
   id="rect8078" />
	<rect
   x="117"
   y="261"
   class="st33"
   width="9"
   height="18"
   id="rect8080" />
	<polygon
   class="st33"
   points="72,252 63,252 63,270 63,279 72,279 "
   id="polygon8082" />
	<polygon
   class="st33"
   points="63,252 63,243 54,243 54,270 63,270 "
   id="polygon8084" />
	<rect
   x="72"
   y="243"
   class="st9"
   width="27"
   height="9"
   id="rect8086" />
	<rect
   x="63"
   y="243"
   class="st9"
   width="9"
   height="9"
   id="rect8088" />
	<rect
   x="99"
   y="279"
   class="st35"
   width="18"
   height="9"
   id="rect8090" />
	<polygon
   class="st35"
   points="108,261 108,252 99,252 99,279 117,279 117,261 "
   id="polygon8092" />
	<rect
   x="99"
   y="243"
   class="st35"
   width="9"
   height="9"
   id="rect8094" />
	<rect
   x="153"
   y="243"
   class="st9"
   width="18"
   height="9"
   id="rect8096" />
	<polygon
   class="st35"
   points="180,243 171,243 171,252 171,288 189,288 189,261 180,261 "
   id="polygon8098" />
	<rect
   x="153"
   y="252"
   class="st33"
   width="18"
   height="36"
   id="rect8100" />
	<rect
   x="126"
   y="243"
   class="st31"
   width="9"
   height="18"
   id="rect8102" />
	<polygon
   class="st31"
   points="117,261 126,261 126,243 117,243 117,252 "
   id="polygon8104" />
	<rect
   x="189"
   y="243"
   class="st31"
   width="18"
   height="18"
   id="rect8106" />
	<polygon
   class="st35"
   points="135,198 126,198 117,198 108,198 99,198 90,198 90,207 153,207 153,198 144,198 "
   id="polygon8108" />
	<polygon
   class="st35"
   points="63,387 63,396 153,396 153,387 72,387 "
   id="polygon8110" />
	<rect
   x="108"
   y="252"
   class="st34"
   width="9"
   height="9"
   id="rect8112" />
	<rect
   x="108"
   y="243"
   class="st34"
   width="9"
   height="9"
   id="rect8114" />
	<rect
   x="180"
   y="243"
   class="st34"
   width="9"
   height="18"
   id="rect8116" />
	<polygon
   class="st36"
   points="63,306 63,288 54,288 54,324 63,324 63,315 "
   id="polygon8118" />
	<polygon
   class="st36"
   points="72,324 81,324 81,297 81,288 72,288 72,306 72,315 "
   id="polygon8120" />
	<rect
   x="63"
   y="288"
   class="st36"
   width="9"
   height="18"
   id="rect8122" />
	<rect
   x="81"
   y="297"
   class="st37"
   width="9"
   height="27"
   id="rect8124" />
	<rect
   x="81"
   y="288"
   class="st37"
   width="9"
   height="9"
   id="rect8126" />
	<rect
   x="63"
   y="315"
   class="st30"
   width="9"
   height="9"
   id="rect8128" />
	<rect
   x="63"
   y="306"
   class="st38"
   width="9"
   height="9"
   id="rect8130" />
	<rect
   x="126"
   y="171"
   class="st32"
   width="9"
   height="9"
   id="rect8132" />
</g>
     </svg>
