<?xml version="1.0" encoding="utf-8"?>
<!-- Generator: Adobe Illustrator 23.0.3, SVG Export Plug-In . SVG Version: 6.00 Build 0)  -->
<svg version="1.1" id="Layer_1" xmlns="http://www.w3.org/2000/svg" xmlns:xlink="http://www.w3.org/1999/xlink" x="0px" y="0px"
	 viewBox="0 0 1467 1116" style="enable-background:new 0 0 1467 1116;" xml:space="preserve">
     <style type="text/css">
	.st0{fill:none;}
	.st1{opacity:0.5;fill:#929497;}
	.st2{fill:#F0D0B4;}
	.st3{fill:#497775;}
	.st4{fill:#CF9E76;}
	.st5{fill:#404041;}
	.st6{fill:#5A4A42;}
	.st7{fill:#A16733;}
	.st8{fill:#637E77;}
	.st9{fill:#A87C4F;}
	.st10{fill:#A6C57C;}
	.st11{fill:#B96E2B;}
	.st12{fill:#9A5C20;}
	.st13{fill:#375D4C;}
	.st14{fill:#F5E0CD;}
	.st15{fill:#C1272D;}
	.st16{fill:#AB2328;}
	.st17{fill:#AD2328;}
	.st18{fill:#BF8229;}
	.st19{fill:#E6E7E8;}
	.st20{fill:#A8BA3A;}
	.st21{fill:#7B912C;}
	.st22{fill:#FFCF01;}
	.st23{fill:#D34F1D;}
	.st24{fill:#AD4013;}
	.st25{fill:#C3922E;}
	.st26{fill:#A37B24;}
	.st27{fill:#8F3510;}
	.st28{fill:#F79433;}
	.st29{fill:#F4E09C;}
	.st30{fill:#FBCC34;}
	.st31{fill:#D0D2D3;}
	.st32{fill:#58595B;}
	.st33{fill:#8A5D3B;}
	.st34{fill:#929497;}
	.st35{fill:#754C28;}
	.st36{fill:#603813;}
	.st37{fill:#3B2314;}
	.st38{fill:#CDA349;}
	.st39{fill:#ECCF88;}
	.st40{fill:#F3E5D0;}
	.st41{fill:#F0DAAC;}
	.st42{fill:#E2C675;}
	.st43{fill:#808184;}
	.st44{fill:#CA974D;}
	.st45{fill:#EAC17D;}
	.st46{fill:#EE4036;}
	.st47{fill:#716558;}
	.st48{fill:#F05A28;}
	.st49{fill:#EE7069;}
	.st50{fill:#EC1C24;}
	.st51{fill:#C1B49A;}
	.st52{fill:#B88725;}
	.st53{fill:#D9CAAD;}
	.st54{fill:#BBBDBF;}
	.st55{fill:#9A8479;}
	.st56{fill:#93A650;}
	.st57{fill:#6E8227;}
	.st58{fill:#91AB33;}
	.st59{fill:#A64D2C;}
	.st60{fill:#4A3019;}
	.st61{opacity:0.57;fill:#808184;}
	.st62{fill:#C3996B;}
	.st63{fill:#617322;}
	.st64{fill:#AD6433;}
	.st65{fill:#EEA11E;}
	.st66{fill:#BCCD30;}
	.st67{fill:#F26122;}
	.st68{fill:#CC521D;}
	.st69{fill:#E1E43C;}
	.st70{fill:#8CA632;}
	.st71{fill:#F29254;}
	.st72{fill:#EEB75A;}
	.st73{fill:#B88D45;}
	.st74{fill:#A34217;}
	.st75{fill:#FBC926;}
	.st76{fill:#9FA0A3;}
	.st77{fill:#F1F1F2;}
	.st78{fill:#8BC53F;}
	.st79{fill:#A1805A;}
	.st80{fill:#DDBF9A;}
	.st81{fill:#72583C;}
	.st82{fill:#EE928C;}
	.st83{fill:#6D6E70;}
	.st84{fill:#996334;}
	.st85{fill:#97B336;}
	.st86{fill:#FFE89B;}
	.st87{fill:#CF8C1A;}
	.st88{fill:#D1AA2B;}
	.st89{fill:#E0B62E;}
	.st90{fill:#00A69C;}
	.st91{fill:#DEA32D;}
	.st92{fill:#25A9E0;}
	.st93{fill:#1B75BB;}
	.st94{fill:#916B44;}
	.st95{fill:#DBAC78;}
	.st96{fill:#F6921E;}
	.st97{fill:#CF982A;}
	.st98{fill:#85552A;}
	.st99{fill:#8A582C;}
	.st100{fill:#CAB68B;}
	.st101{fill:#D0AC2D;}
	.st102{fill:#CED7E4;}
	.st103{fill:#74CCE5;}
	.st104{fill:#00A9D3;}
	.st105{fill:#B9E5FB;}
	.st106{fill:#E6C69D;}
	.st107{fill:#87562B;}
	.st108{fill:#569483;}
	.st109{fill:#BD8648;}
	.st110{fill:#FFD694;}
	.st111{fill:#C2A370;}
	.st112{fill:#B0ACB0;}
	.st113{opacity:0.8;fill:#8A5D3B;}
	.st114{fill:#E9E9EA;}
	.st115{fill:#989498;}
	.st116{fill:#D3D1D3;}
	.st117{opacity:0.8;fill:#929497;}
	.st118{fill:#D4D2D3;}
	.st119{fill:#B3B6BA;}
	.st120{fill:#B1ADB1;}
	.st121{fill:#D6DE23;}
</style>
<g>
	<polygon class="st0" points="243,378 243,387 279,387 279,378 279,351 252,351 243,351 	"/>
	<polygon class="st1" points="279,396 279,387 243,387 252,396 225,396 225,387 207,387 207,405 315,405 315,387 297,387 306,396 	
		"/>
	<polygon class="st2" points="297,319.5 306,333 324,333 306,306 297,306 	"/>
	<rect x="297" y="297" class="st2" width="9" height="9"/>
	<polygon class="st3" points="297,270 297,297 306,297 306,270 297,261 293.54,266.54 	"/>
	<path class="st2" d="M261,243h-9v-9h9V243h27v-9h-9v-9h4.5L270,198h-36v9v18v18v9h27V243z M252,207h9v9h-9V207z"/>
	<polygon class="st4" points="297,234 297,216 288,216 	"/>
	<polygon class="st4" points="288,243 288,252 297,252 297,243 297,234 288,234 	"/>
	<polygon class="st4" points="288,216 288,207 297,207 297,198 279,198 	"/>
	<rect x="252" y="207" class="st5" width="9" height="9"/>
	<rect x="288" y="207" class="st5" width="9" height="9"/>
	<polygon class="st6" points="297,189 288,180 225,180 225,189 234,189 	"/>
	<rect x="225" y="207" class="st2" width="9" height="18"/>
	<polygon class="st6" points="234,198 234,189 225,189 225,207 234,207 	"/>
	<rect x="225" y="225" class="st6" width="9" height="18"/>
	<polygon class="st7" points="261,243 261,252 270,252 279,252 288,252 288,243 	"/>
	<polygon class="st2" points="270,261 270,252 261,252 234,252 234,261 243,261 	"/>
	<polygon class="st8" points="288,297 288,275.4 257.63,324 297,324 297,319.5 288,306 	"/>
	<polygon class="st8" points="225,306 225,324 237,324 	"/>
	<polygon class="st8" points="243,261 243,279 243,297 243,306 251.71,319.06 288,261 279,261 270,261 	"/>
	<polygon class="st8" points="288,306 297,319.5 297,306 	"/>
	<rect x="288" y="297" class="st8" width="9" height="9"/>
	<polygon class="st8" points="297,297 297,270 293.54,266.54 288,275.4 288,297 	"/>
	<polygon class="st6" points="243,351 234,351 225,351 225,378 243,378 	"/>
	<rect x="279" y="351" class="st6" width="18" height="27"/>
	<polygon class="st6" points="252,333 252,351 279,351 279,342 297,342 297,333 261,333 	"/>
	<rect x="279" y="342" class="st6" width="18" height="9"/>
	<polygon class="st2" points="243,297 234,297 225,297 225,306 243,306 	"/>
	<polygon class="st9" points="252,396 243,387 225,387 225,396 	"/>
	<polygon class="st9" points="279,396 306,396 297,387 279,387 	"/>
	<rect x="234" y="261" class="st3" width="9" height="18"/>
	<rect x="234" y="279" class="st3" width="9" height="18"/>
	<polygon class="st10" points="234,261 225,270 225,279 234,279 	"/>
	<rect x="225" y="279" class="st10" width="9" height="18"/>
	<rect x="252" y="234" class="st7" width="9" height="9"/>
	<rect x="225" y="378" class="st9" width="18" height="9"/>
	<rect x="279" y="378" class="st9" width="18" height="9"/>
	<polygon class="st11" points="297,261 288,261 293.54,266.54 	"/>
	<polygon class="st11" points="255,324 257.63,324 288,275.4 288,261 251.71,319.06 	"/>
	<polygon class="st11" points="293.54,266.54 288,261 288,275.4 	"/>
	<polygon class="st7" points="256.35,326.03 261,333 297,333 297,324 257.63,324 	"/>
	<polygon class="st7" points="257.63,324 255,324 256.35,326.03 	"/>
	<polygon class="st12" points="243,351 252,351 252,333 243,333 243,342 	"/>
	<polygon class="st11" points="225,342 225,333 225,324 216,333 216,351 225,351 	"/>
	<rect x="234" y="333" class="st11" width="9" height="9"/>
	<rect x="234" y="342" class="st11" width="9" height="9"/>
	<polygon class="st11" points="234,333 243,333 237,324 225,324 225,333 	"/>
	<polygon class="st2" points="243,324 248.63,324 251.71,319.06 243,306 225,306 237,324 	"/>
	<polygon class="st2" points="255,324 251.71,319.06 248.63,324 252,324 	"/>
	<polygon class="st2" points="261,333 256.35,326.03 252,333 	"/>
	<polygon class="st2" points="252,333 256.35,326.03 255,324 252,324 	"/>
	<polygon class="st2" points="243,324 243,333 248.63,324 	"/>
	<polygon class="st2" points="252,324 248.63,324 243,333 252,333 	"/>
	<polygon class="st2" points="237,324 243,333 243,324 	"/>
	<rect x="225" y="333" class="st12" width="9" height="9"/>
	<rect x="225" y="342" class="st12" width="9" height="9"/>
	<polygon class="st13" points="279,171 225,171 225,180 288,180 	"/>
	<rect x="270" y="252" class="st4" width="9" height="9"/>
	<polygon class="st14" points="279,198 270,198 283.5,225 288,225 288,234 297,234 288,216 	"/>
	<polygon class="st14" points="234,198 270,198 279,198 297,198 297,189 234,189 	"/>
	<polygon class="st14" points="279,225 279,234 288,234 283.5,225 	"/>
	<polygon class="st14" points="283.5,225 288,234 288,225 	"/>
</g>
     </svg>