<?xml version="1.0" encoding="UTF-8" standalone="no"?>
<svg
   xmlns:dc="http://purl.org/dc/elements/1.1/"
   xmlns:cc="http://creativecommons.org/ns#"
   xmlns:rdf="http://www.w3.org/1999/02/22-rdf-syntax-ns#"
   xmlns:svg="http://www.w3.org/2000/svg"
   xmlns="http://www.w3.org/2000/svg"
   xmlns:sodipodi="http://sodipodi.sourceforge.net/DTD/sodipodi-0.dtd"
   xmlns:inkscape="http://www.inkscape.org/namespaces/inkscape"
   version="1.1"
   id="Layer_1"
   x="0px"
   y="0px"
   viewBox="0 0 142 108"
   xml:space="preserve"
   sodipodi:docname="tresure.svg"
   width="142"
   height="108"
   inkscape:version="1.0.1 (c497b03c, 2020-09-10)"><metadata
   id="metadata8491"><rdf:RDF><cc:Work
       rdf:about=""><dc:format>image/svg+xml</dc:format><dc:type
         rdf:resource="http://purl.org/dc/dcmitype/StillImage" /><dc:title></dc:title></cc:Work></rdf:RDF></metadata><defs
   id="defs8489" /><sodipodi:namedview
   pagecolor="#ffffff"
   bordercolor="#666666"
   borderopacity="1"
   objecttolerance="10"
   gridtolerance="10"
   guidetolerance="10"
   inkscape:pageopacity="0"
   inkscape:pageshadow="2"
   inkscape:window-width="1680"
   inkscape:window-height="925"
   id="namedview8487"
   showgrid="false"
   inkscape:zoom="0.65860215"
   inkscape:cx="733.5"
   inkscape:cy="315.06122"
   inkscape:window-x="0"
   inkscape:window-y="23"
   inkscape:window-maximized="1"
   inkscape:current-layer="Layer_1" />
     <style
   type="text/css"
   id="style8422">
	.st0{fill:none;}
	.st1{opacity:0.5;fill:#929497;}
	.st2{fill:#F0D0B4;}
	.st3{fill:#497775;}
	.st4{fill:#CF9E76;}
	.st5{fill:#404041;}
	.st6{fill:#5A4A42;}
	.st7{fill:#A16733;}
	.st8{fill:#637E77;}
	.st9{fill:#A87C4F;}
	.st10{fill:#A6C57C;}
	.st11{fill:#B96E2B;}
	.st12{fill:#9A5C20;}
	.st13{fill:#375D4C;}
	.st14{fill:#F5E0CD;}
	.st15{fill:#C1272D;}
	.st16{fill:#AB2328;}
	.st17{fill:#AD2328;}
	.st18{fill:#BF8229;}
	.st19{fill:#E6E7E8;}
	.st20{fill:#A8BA3A;}
	.st21{fill:#7B912C;}
	.st22{fill:#FFCF01;}
	.st23{fill:#D34F1D;}
	.st24{fill:#AD4013;}
	.st25{fill:#C3922E;}
	.st26{fill:#A37B24;}
	.st27{fill:#8F3510;}
	.st28{fill:#F79433;}
	.st29{fill:#F4E09C;}
	.st30{fill:#FBCC34;}
	.st31{fill:#D0D2D3;}
	.st32{fill:#58595B;}
	.st33{fill:#8A5D3B;}
	.st34{fill:#929497;}
	.st35{fill:#754C28;}
	.st36{fill:#603813;}
	.st37{fill:#3B2314;}
	.st38{fill:#CDA349;}
	.st39{fill:#ECCF88;}
	.st40{fill:#F3E5D0;}
	.st41{fill:#F0DAAC;}
	.st42{fill:#E2C675;}
	.st43{fill:#808184;}
	.st44{fill:#CA974D;}
	.st45{fill:#EAC17D;}
	.st46{fill:#EE4036;}
	.st47{fill:#716558;}
	.st48{fill:#F05A28;}
	.st49{fill:#EE7069;}
	.st50{fill:#EC1C24;}
	.st51{fill:#C1B49A;}
	.st52{fill:#B88725;}
	.st53{fill:#D9CAAD;}
	.st54{fill:#BBBDBF;}
	.st55{fill:#9A8479;}
	.st56{fill:#93A650;}
	.st57{fill:#6E8227;}
	.st58{fill:#91AB33;}
	.st59{fill:#A64D2C;}
	.st60{fill:#4A3019;}
	.st61{opacity:0.57;fill:#808184;}
	.st62{fill:#C3996B;}
	.st63{fill:#617322;}
	.st64{fill:#AD6433;}
	.st65{fill:#EEA11E;}
	.st66{fill:#BCCD30;}
	.st67{fill:#F26122;}
	.st68{fill:#CC521D;}
	.st69{fill:#E1E43C;}
	.st70{fill:#8CA632;}
	.st71{fill:#F29254;}
	.st72{fill:#EEB75A;}
	.st73{fill:#B88D45;}
	.st74{fill:#A34217;}
	.st75{fill:#FBC926;}
	.st76{fill:#9FA0A3;}
	.st77{fill:#F1F1F2;}
	.st78{fill:#8BC53F;}
	.st79{fill:#A1805A;}
	.st80{fill:#DDBF9A;}
	.st81{fill:#72583C;}
	.st82{fill:#EE928C;}
	.st83{fill:#6D6E70;}
	.st84{fill:#996334;}
	.st85{fill:#97B336;}
	.st86{fill:#FFE89B;}
	.st87{fill:#CF8C1A;}
	.st88{fill:#D1AA2B;}
	.st89{fill:#E0B62E;}
	.st90{fill:#00A69C;}
	.st91{fill:#DEA32D;}
	.st92{fill:#25A9E0;}
	.st93{fill:#1B75BB;}
	.st94{fill:#916B44;}
	.st95{fill:#DBAC78;}
	.st96{fill:#F6921E;}
	.st97{fill:#CF982A;}
	.st98{fill:#85552A;}
	.st99{fill:#8A582C;}
	.st100{fill:#CAB68B;}
	.st101{fill:#D0AC2D;}
	.st102{fill:#CED7E4;}
	.st103{fill:#74CCE5;}
	.st104{fill:#00A9D3;}
	.st105{fill:#B9E5FB;}
	.st106{fill:#E6C69D;}
	.st107{fill:#87562B;}
	.st108{fill:#569483;}
	.st109{fill:#BD8648;}
	.st110{fill:#FFD694;}
	.st111{fill:#C2A370;}
	.st112{fill:#B0ACB0;}
	.st113{opacity:0.8;fill:#8A5D3B;}
	.st114{fill:#E9E9EA;}
	.st115{fill:#989498;}
	.st116{fill:#D3D1D3;}
	.st117{opacity:0.8;fill:#929497;}
	.st118{fill:#D4D2D3;}
	.st119{fill:#B3B6BA;}
	.st120{fill:#B1ADB1;}
	.st121{fill:#D6DE23;}
</style>
<g
   id="g8484"
   transform="translate(-665.0449,-466.13878)">
	<rect
   x="801"
   y="513"
   class="st7"
   width="9"
   height="63"
   id="rect8424" />
	<rect
   x="747"
   y="531"
   class="st7"
   width="36"
   height="45"
   id="rect8426" />
	<rect
   x="711"
   y="513"
   class="st7"
   width="18"
   height="63"
   id="rect8428" />
	<rect
   x="666"
   y="513"
   class="st98"
   width="45"
   height="63"
   id="rect8430" />
	<polygon
   class="st99"
   points="711,477 702,468 675,468 666,477 666,495 711,495 "
   id="polygon8432" />
	<rect
   x="801"
   y="477"
   class="st11"
   width="9"
   height="18"
   id="rect8434" />
	<polygon
   class="st11"
   points="756,495 774,495 783,495 783,477 747,477 747,495 "
   id="polygon8436" />
	<rect
   x="711"
   y="477"
   class="st11"
   width="18"
   height="18"
   id="rect8438" />
	<polygon
   class="st30"
   points="801,504 783,504 783,531 783,576 801,576 801,513 "
   id="polygon8440" />
	<polygon
   class="st30"
   points="747,504 729,504 729,513 729,576 747,576 747,531 "
   id="polygon8442" />
	<polygon
   class="st30"
   points="729,495 729,504 747,504 747,495 747,477 729,477 "
   id="polygon8444" />
	<polygon
   class="st30"
   points="783,504 801,504 801,495 801,477 783,477 783,495 "
   id="polygon8446" />
	<polygon
   class="st30"
   points="756,504 747,504 747,531 783,531 783,504 774,504 774,522 756,522 756,513 "
   id="polygon8448" />
	<polygon
   class="st100"
   points="810,477 801,468 792,468 801,477 "
   id="polygon8450" />
	<polygon
   class="st100"
   points="747,477 783,477 774,468 738,468 "
   id="polygon8452" />
	<polygon
   class="st100"
   points="729,477 720,468 711,468 711,477 "
   id="polygon8454" />
	<polygon
   class="st100"
   points="711,468 702,468 711,477 "
   id="polygon8456" />
	<polygon
   class="st29"
   points="801,477 792,468 774,468 783,477 "
   id="polygon8458" />
	<polygon
   class="st29"
   points="747,477 738,468 720,468 729,477 "
   id="polygon8460" />
	<polygon
   class="st25"
   points="765,513 756,513 756,522 774,522 774,504 765,504 "
   id="polygon8462" />
	<rect
   x="666"
   y="504"
   class="st101"
   width="45"
   height="9"
   id="rect8464" />
	<rect
   x="711"
   y="504"
   class="st30"
   width="18"
   height="9"
   id="rect8466" />
	<rect
   x="801"
   y="504"
   class="st30"
   width="9"
   height="9"
   id="rect8468" />
	<rect
   x="666"
   y="495"
   class="st101"
   width="45"
   height="9"
   id="rect8470" />
	<rect
   x="711"
   y="495"
   class="st30"
   width="18"
   height="9"
   id="rect8472" />
	<rect
   x="801"
   y="495"
   class="st30"
   width="9"
   height="9"
   id="rect8474" />
	<rect
   x="756"
   y="504"
   class="st42"
   width="9"
   height="9"
   id="rect8476" />
	<rect
   x="747"
   y="495"
   class="st30"
   width="9"
   height="9"
   id="rect8478" />
	<rect
   x="774"
   y="495"
   class="st30"
   width="9"
   height="9"
   id="rect8480" />
	<polygon
   class="st44"
   points="774,495 756,495 756,504 765,504 774,504 "
   id="polygon8482" />
</g>
     </svg>
